<svg width="55" height="53" viewBox="0 0 55 53" fill="none" xmlns="http://www.w3.org/2000/svg">
<path d="M37.6069 31.3254C37.0076 31.3254 36.5214 30.839 36.5214 30.2394V11.815L27.6578 15.3591V25.1079C27.6578 25.7075 27.1716 26.1939 26.5723 26.1939C25.973 26.1939 25.4868 25.7075 25.4868 25.1079V14.6251C25.4868 14.1813 25.7576 13.7823 26.1692 13.618L37.2038 9.20555C37.5365 9.07113 37.9161 9.11167 38.2147 9.31437C38.5133 9.51707 38.6903 9.85205 38.6903 10.2126V30.2394C38.6903 30.839 38.2062 31.3254 37.6069 31.3254Z" fill="#FFCD00"/>
<path d="M49.3687 32.9897C48.7694 32.9897 48.2832 32.5032 48.2832 31.9037V14.8598L37.2678 11.2432C36.6984 11.0554 36.3891 10.4431 36.5747 9.87338C36.7623 9.30369 37.3744 8.99431 37.9439 9.17994L49.7057 13.0419C50.1514 13.1891 50.4521 13.6031 50.4521 14.0725V31.9037C50.4543 32.5054 49.968 32.9897 49.3687 32.9897Z" fill="#FFCD00"/>
<path d="M14.6334 20.9472C14.0341 20.9472 13.5479 20.4607 13.5479 19.8611V1.5712C13.5479 1.24048 13.6993 0.926831 13.9595 0.719864C14.2197 0.51503 14.5588 0.438217 14.8808 0.512896L29.767 4.00574C30.2576 4.12095 30.6052 4.55836 30.6052 5.06191V10.2105C30.6052 10.8101 30.1189 11.2965 29.5197 11.2965C28.9204 11.2965 28.4341 10.8101 28.4341 10.2105V5.92178L15.7189 2.93889V19.8611C15.7189 20.4607 15.2327 20.9472 14.6334 20.9472Z" fill="#FFCD00"/>
<path d="M39.9891 52.4852C39.3898 52.4852 38.9035 51.9987 38.9035 51.3991V31.3254H14.241V31.8546C14.241 32.4542 13.7547 32.9406 13.1554 32.9406C12.5561 32.9406 12.0699 32.4542 12.0699 31.8546V30.2415C12.0699 29.642 12.5561 29.1555 13.1554 29.1555H39.9891C40.5884 29.1555 41.0746 29.642 41.0746 30.2415V51.4013C41.0725 51.9987 40.5884 52.4852 39.9891 52.4852Z" fill="#FFCD00"/>
<path d="M13.1554 52.4852H1.58555C0.986256 52.4852 0.5 51.9987 0.5 51.3991V44.6652C0.5 44.0656 0.986256 43.5792 1.58555 43.5792C2.18483 43.5792 2.67109 44.0656 2.67109 44.6652V50.3152H12.072V45.0365C12.072 44.4369 12.5583 43.9504 13.1576 43.9504C13.7569 43.9504 14.2431 44.4369 14.2431 45.0365V51.3991C14.241 51.9987 13.7547 52.4852 13.1554 52.4852Z" fill="#FFCD00"/>
<path d="M1.58554 45.7488C0.986256 45.7488 0.5 45.2623 0.5 44.6628V8.92572C0.5 8.53312 0.711137 8.17253 1.05237 7.98049L14.1002 0.623554C14.6227 0.329105 15.2839 0.514736 15.5782 1.03749C15.8725 1.56024 15.687 2.22168 15.1645 2.51613L2.66896 9.55942V44.6649C2.66896 45.2623 2.18483 45.7488 1.58554 45.7488Z" fill="#FFCD00"/>
<path d="M48.9336 52.4852H20.831C20.2317 52.4852 19.7455 51.9987 19.7455 51.3991V36.3225C19.7455 35.723 20.2317 35.2365 20.831 35.2365H26.5211C27.1204 35.2365 27.6066 35.723 27.6066 36.3225V50.3152H47.8502V45.0365C47.8502 44.4369 48.3365 43.9504 48.9358 43.9504C49.5351 43.9504 50.0213 44.4369 50.0213 45.0365V51.3991C50.0192 51.9987 49.5329 52.4852 48.9336 52.4852ZM21.9166 50.3131H25.4377V37.4064H21.9166V50.3131Z" fill="#FFCD00"/>
<path d="M32.3135 51.5656C31.7142 51.5656 31.2279 51.0791 31.2279 50.4795V37.4064H27.7069V50.4795C27.7069 51.0791 27.2206 51.5656 26.6213 51.5656C26.022 51.5656 25.5358 51.0791 25.5358 50.4795V36.3225C25.5358 35.723 26.022 35.2365 26.6213 35.2365H32.3114C32.9106 35.2365 33.3969 35.723 33.3969 36.3225V50.4795C33.399 51.0791 32.9128 51.5656 32.3135 51.5656Z" fill="#FFCD00"/>
<path d="M48.9337 46.1225C45.8647 46.1225 43.3694 43.624 43.3694 40.5557C43.3694 37.4854 45.8668 34.989 48.9337 34.989C52.0005 34.989 54.4979 37.4875 54.4979 40.5557C54.5 43.624 52.0026 46.1225 48.9337 46.1225ZM48.9337 37.1589C47.0612 37.1589 45.5384 38.6824 45.5384 40.5557C45.5384 42.4291 47.0612 43.9526 48.9337 43.9526C50.8062 43.9526 52.3289 42.4291 52.3289 40.5557C52.3289 38.6824 50.8062 37.1589 48.9337 37.1589Z" fill="#FFCD00"/>
<path d="M8.10946 44.486C6.66135 44.486 5.29856 43.7797 4.46254 42.5955C3.62652 41.4113 3.41751 39.89 3.90164 38.5245L7.08789 29.5331C7.24145 29.1 7.65093 28.8098 8.10946 28.8098C8.56799 28.8098 8.97747 29.1 9.13102 29.5331L12.3173 38.5245C12.8014 39.89 12.5903 41.4113 11.7564 42.5955C10.9204 43.7797 9.55756 44.486 8.10946 44.486ZM8.10946 33.1433L5.94476 39.2499C5.69311 39.9626 5.79761 40.7243 6.23268 41.3431C6.66775 41.9597 7.35235 42.3139 8.10732 42.3139C8.8623 42.3139 9.5469 41.9597 9.98197 41.3431C10.417 40.7264 10.5237 39.9626 10.2699 39.2499L8.10946 33.1433Z" fill="#FFCD00"/>
<path d="M8.10947 52.4852C7.51018 52.4852 7.02393 51.9987 7.02393 51.3991V43.4C7.02393 42.8004 7.51018 42.3139 8.10947 42.3139C8.70876 42.3139 9.19502 42.8004 9.19502 43.4V51.3991C9.19502 51.9987 8.70876 52.4852 8.10947 52.4852Z" fill="#FFCD00"/>
<path d="M18.8135 26.1961C18.2142 26.1961 17.728 25.7096 17.728 25.11V2.55058C17.728 1.95102 18.2142 1.46454 18.8135 1.46454C19.4128 1.46454 19.8991 1.95102 19.8991 2.55058V25.1079C19.8991 25.7096 19.4128 26.1961 18.8135 26.1961Z" fill="#FFCD00"/>
<path d="M23.1706 15.9394C22.5713 15.9394 22.0851 15.453 22.0851 14.8534V3.57475C22.0851 2.97519 22.5713 2.48871 23.1706 2.48871C23.7699 2.48871 24.2562 2.97519 24.2562 3.57475V14.8555C24.2562 15.453 23.7699 15.9394 23.1706 15.9394Z" fill="#FFCD00"/>
<path d="M26.5723 15.7111C25.973 15.7111 25.4868 15.2246 25.4868 14.6251V4.65437C25.4868 4.05481 25.973 3.56833 26.5723 3.56833C27.1716 3.56833 27.6578 4.05481 27.6578 4.65437V14.6251C27.6578 15.2246 27.1716 15.7111 26.5723 15.7111Z" fill="#FFCD00"/>
<path d="M46.223 20.9472C45.6237 20.9472 45.1375 20.4607 45.1375 19.8612V16.586C45.1375 15.9864 45.6237 15.4999 46.223 15.4999C46.8223 15.4999 47.3085 15.9864 47.3085 16.586V19.8612C47.3085 20.4607 46.8223 20.9472 46.223 20.9472Z" fill="#FFCD00"/>
<path d="M46.223 27.3589C45.6237 27.3589 45.1375 26.8724 45.1375 26.2729V22.9977C45.1375 22.3981 45.6237 21.9116 46.223 21.9116C46.8223 21.9116 47.3085 22.3981 47.3085 22.9977V26.2729C47.3085 26.8724 46.8223 27.3589 46.223 27.3589Z" fill="#FFCD00"/>
<path d="M41.915 19.7886C41.3157 19.7886 40.8294 19.3021 40.8294 18.7026V15.4274C40.8294 14.8278 41.3157 14.3413 41.915 14.3413C42.5142 14.3413 43.0005 14.8278 43.0005 15.4274V18.7026C43.0005 19.3021 42.5142 19.7886 41.915 19.7886Z" fill="#FFCD00"/>
<path d="M41.915 26.2003C41.3157 26.2003 40.8294 25.7138 40.8294 25.1143V21.8391C40.8294 21.2395 41.3157 20.753 41.915 20.753C42.5142 20.753 43.0005 21.2395 43.0005 21.8391V25.1143C43.0005 25.7138 42.5142 26.2003 41.915 26.2003Z" fill="#FFCD00"/>
<path d="M46.223 33.7706C45.6237 33.7706 45.1375 33.2841 45.1375 32.6846V29.4094C45.1375 28.8098 45.6237 28.3233 46.223 28.3233C46.8223 28.3233 47.3085 28.8098 47.3085 29.4094V32.6846C47.3085 33.2841 46.8223 33.7706 46.223 33.7706Z" fill="#FFCD00"/>
<path d="M30.5071 18.3782C30.055 18.3782 29.6327 18.0945 29.4792 17.6421C29.2872 17.0746 29.5901 16.4579 30.1574 16.2659L33.3202 15.1905C33.8875 14.9985 34.5038 15.3015 34.6957 15.869C34.8877 16.4366 34.5848 17.0532 34.0175 17.2453L30.8548 18.3206C30.7417 18.3612 30.6223 18.3782 30.5071 18.3782Z" fill="#FFCD00"/>
<path d="M30.5071 23.2068C30.055 23.2068 29.6327 22.923 29.4792 22.4706C29.2872 21.9031 29.5901 21.2864 30.1574 21.0944L33.3202 20.019C33.8875 19.827 34.5038 20.13 34.6957 20.6976C34.8877 21.2651 34.5848 21.8817 34.0175 22.0738L30.8548 23.1492C30.7417 23.1876 30.6223 23.2068 30.5071 23.2068Z" fill="#FFCD00"/>
<path d="M30.5071 27.6661C30.055 27.6661 29.6327 27.3824 29.4792 26.93C29.2872 26.3625 29.5901 25.7458 30.1574 25.5538L33.3202 24.4784C33.8875 24.2864 34.5038 24.5894 34.6957 25.1569C34.8877 25.7245 34.5848 26.3411 34.0175 26.5332L30.8548 27.6085C30.7417 27.6469 30.6223 27.6661 30.5071 27.6661Z" fill="#FFCD00"/>
<path d="M5.97678 16.3619C5.37749 16.3619 4.89124 15.8754 4.89124 15.2759V10.5668C4.89124 9.96725 5.37749 9.48077 5.97678 9.48077C6.57607 9.48077 7.06233 9.96725 7.06233 10.5668V15.278C7.06233 15.8754 6.57607 16.3619 5.97678 16.3619Z" fill="#FFCD00"/>
<path d="M5.97678 25.5709C5.37749 25.5709 4.89124 25.0844 4.89124 24.4848V19.7737C4.89124 19.1741 5.37749 18.6876 5.97678 18.6876C6.57607 18.6876 7.06233 19.1741 7.06233 19.7737V24.4848C7.06233 25.0844 6.57607 25.5709 5.97678 25.5709Z" fill="#FFCD00"/>
<path d="M10.2422 22.1314C9.64287 22.1314 9.15662 21.6449 9.15662 21.0453V15.278C9.15662 14.6784 9.64287 14.192 10.2422 14.192C10.8415 14.192 11.3277 14.6784 11.3277 15.278V21.0475C11.3256 21.6449 10.8415 22.1314 10.2422 22.1314Z" fill="#FFCD00"/>
<path d="M10.2422 29.7956C9.64287 29.7956 9.15662 29.3091 9.15662 28.7095V26.0424C9.15662 25.4429 9.64287 24.9564 10.2422 24.9564C10.8415 24.9564 11.3277 25.4429 11.3277 26.0424V28.7095C11.3256 29.3091 10.8415 29.7956 10.2422 29.7956Z" fill="#FFCD00"/>
</svg>
