<svg width="55" height="54" viewBox="0 0 55 54" fill="none" xmlns="http://www.w3.org/2000/svg">
<path d="M14.0696 33.7108C8.15166 33.7108 5.06854 30.6579 3.52482 28.0972C1.87962 25.3682 1.6227 22.6564 1.61406 22.542C1.6119 22.5096 1.60974 22.4794 1.60974 22.447V15.7863C1.60974 15.1904 2.09337 14.7068 2.68927 14.7068H4.06458C4.36469 14.7068 4.60866 14.4628 4.60866 14.1627V10.6262C4.60866 10.0303 5.09229 9.54669 5.68819 9.54669H14.0718C14.6677 9.54669 15.1513 10.0303 15.1513 10.6262C15.1513 11.2221 14.6677 11.7057 14.0718 11.7057H6.76555V14.1627C6.76555 15.6546 5.55217 16.8659 4.06242 16.8659H3.76663V22.3952C3.84652 23.1487 4.95411 31.5539 14.0696 31.5539C18.0164 31.5539 20.944 30.0512 22.7728 27.0868C24.0552 25.0076 24.3359 22.9328 24.3726 22.6176V11.9864C24.3726 11.3905 24.8562 10.9069 25.4521 10.9069C26.048 10.9069 26.5317 11.3905 26.5317 11.9864V22.6737C26.5317 22.7061 26.5295 22.7385 26.5273 22.7709C26.5165 22.8831 26.2596 25.5453 24.6101 28.2203C23.0664 30.7248 19.9833 33.7108 14.0696 33.7108Z" fill="#FFCD00"/>
<path d="M24.69 16.8659H23.3147C21.8228 16.8659 20.6115 15.6525 20.6115 14.1627V11.7057H13.3096C12.7137 11.7057 12.2301 11.2221 12.2301 10.6262C12.2301 10.0303 12.7137 9.54669 13.3096 9.54669H21.6932C22.2891 9.54669 22.7727 10.0303 22.7727 10.6262V14.1627C22.7727 14.4628 23.0167 14.7068 23.3168 14.7068H24.6921C25.288 14.7068 25.7717 15.1904 25.7717 15.7863C25.7717 16.3822 25.288 16.8659 24.69 16.8659Z" fill="#FFCD00"/>
<path d="M40.736 33.7108C34.818 33.7108 31.7349 30.6579 30.1912 28.0973C28.546 25.3682 28.2891 22.6565 28.2804 22.542C28.2783 22.5096 28.2761 22.4794 28.2761 22.447V12.2067C28.2761 11.669 28.6712 11.2135 29.2045 11.1379C30.6381 10.9328 32.1603 10.3175 32.3395 9.87272C32.4755 9.53375 32.7734 9.28546 33.1318 9.21421C33.4902 9.14296 33.8594 9.25739 34.1142 9.51863C34.1898 9.59636 41.8803 17.3452 48.5194 15.1624C49.0851 14.9767 49.6961 15.2833 49.8817 15.8511C50.0674 16.419 49.7608 17.0278 49.193 17.2135C45.8724 18.306 41.9256 17.5633 37.7781 15.0652C35.8587 13.908 34.3193 12.6385 33.4255 11.8375C32.9354 12.2218 32.279 12.5478 31.465 12.8133C31.098 12.9343 30.7396 13.0271 30.4352 13.0983V22.3974C30.5151 23.1509 31.6227 31.5561 40.7382 31.5561C44.6849 31.5561 47.6126 30.0534 49.4413 27.089C50.7238 25.0098 51.0044 22.935 51.0411 22.6198V17.8698C51.0411 17.2739 51.5248 16.7903 52.1207 16.7903C52.7166 16.7903 53.2002 17.2739 53.2002 17.8698V22.6759C53.2002 22.7083 53.198 22.7407 53.1959 22.773C53.1851 22.8853 52.9282 25.5474 51.2786 28.2225C49.7306 30.7248 46.6475 33.7108 40.736 33.7108Z" fill="#FFCD00"/>
<path d="M1.82993 13.9253C1.79323 13.9253 1.75652 13.9231 1.71982 13.9188C1.12824 13.8583 0.694269 13.3315 0.752564 12.7399C0.765518 12.6147 1.07426 9.64602 2.84468 6.65357C4.51363 3.84033 7.81266 0.485168 14.0696 0.485168C21.9415 0.485168 24.8087 5.7878 25.817 8.9508C25.9983 9.51863 25.6853 10.1253 25.1153 10.3067C24.5475 10.488 23.9408 10.175 23.7594 9.605C22.7468 6.42903 20.2445 2.64422 14.0696 2.64422C4.07534 2.64422 2.944 12.5348 2.90082 12.9558C2.84468 13.5107 2.37617 13.9253 1.82993 13.9253Z" fill="#FFCD00"/>
<path d="M52.1186 16.2462C51.5227 16.2462 51.039 15.7626 51.039 15.1667V12.9602C51.039 7.41788 46.6 2.79319 41.1419 2.64854C41.0081 2.64422 40.8721 2.64422 40.736 2.64422C32.3525 2.64422 30.4741 9.35886 30.3985 9.64602C30.2452 10.2203 29.658 10.5658 29.0815 10.4146C28.505 10.2635 28.1596 9.6784 28.3086 9.10194C28.3323 9.01126 28.8958 6.88243 30.7116 4.76441C32.3848 2.81262 35.4852 0.485168 40.736 0.485168C40.8915 0.485168 41.0469 0.487328 41.1981 0.491646C44.4345 0.575849 47.4593 1.9231 49.7177 4.2851C51.9609 6.63198 53.1959 9.71295 53.1959 12.9602V15.1667C53.1981 15.7648 52.7145 16.2462 52.1186 16.2462Z" fill="#FFCD00"/>
<path d="M32.4389 33.7108H29.3536C28.7577 33.7108 28.274 33.2272 28.274 32.6313V21.6287C28.274 21.0329 28.7577 20.5492 29.3536 20.5492C29.9495 20.5492 30.4331 21.0329 30.4331 21.6287V31.5517H32.4389C33.0348 31.5517 33.5184 32.0354 33.5184 32.6313C33.5184 33.2272 33.0348 33.7108 32.4389 33.7108Z" fill="#FFCD00"/>
<path d="M52.1185 33.7108H49.1779C48.582 33.7108 48.0984 33.2272 48.0984 32.6313C48.0984 32.0354 48.582 31.5517 49.1779 31.5517H51.039V22.6737C51.039 22.0778 51.5226 21.5942 52.1185 21.5942C52.7144 21.5942 53.1981 22.0778 53.1981 22.6737V32.6313C53.1981 33.2293 52.7144 33.7108 52.1185 33.7108Z" fill="#FFCD00"/>
<path d="M13.1671 40.3391C12.9447 40.3391 12.7202 40.27 12.5324 40.1318L9.48163 37.9145C9.20311 37.7115 9.03687 37.3876 9.03687 37.0422V34.5852C9.03687 33.9893 9.52049 33.5057 10.1164 33.5057C10.7123 33.5057 11.1959 33.9893 11.1959 34.5852V36.4916L13.1758 37.9339L15.4169 36.3621V34.5852C15.4169 33.9893 15.9005 33.5057 16.4964 33.5057C17.0923 33.5057 17.5759 33.9893 17.5759 34.5852V36.9235C17.5759 37.2754 17.4053 37.6057 17.116 37.8065L13.7825 40.1448C13.5989 40.2743 13.383 40.3391 13.1671 40.3391Z" fill="#FFCD00"/>
<path d="M43.9272 38.0008C43.3313 38.0008 42.8477 37.5172 42.8477 36.9213V34.583C42.8477 33.9871 43.3313 33.5035 43.9272 33.5035C44.5231 33.5035 45.0067 33.9871 45.0067 34.583V36.9213C45.0067 37.5172 44.5231 38.0008 43.9272 38.0008Z" fill="#FFCD00"/>
<path d="M40.736 43.1264C35.6579 43.1264 33.2009 39.2639 32.6115 37.2214C32.5165 36.8954 32.5813 36.5435 32.7864 36.2736C32.9915 36.0037 33.3089 35.8418 33.65 35.8418H36.4676V34.583C36.4676 33.9871 36.9512 33.5035 37.5471 33.5035C38.143 33.5035 38.6266 33.9871 38.6266 34.583V36.9213C38.6266 37.5172 38.143 38.0008 37.5471 38.0008H35.3405C36.1307 39.2747 37.7457 40.9673 40.7382 40.9673C43.7284 40.9673 45.1038 39.2487 45.7104 38.0008H43.9292C43.3333 38.0008 42.8497 37.5172 42.8497 36.9213C42.8497 36.3254 43.3333 35.8418 43.9292 35.8418H47.2131C47.5305 35.8418 47.8328 35.9821 48.0379 36.2239C48.243 36.4657 48.3315 36.7874 48.2776 37.1005C47.9213 39.1861 45.8918 43.1264 40.736 43.1264Z" fill="#FFCD00"/>
<path d="M28.0517 53.0019C27.4558 53.0019 26.9722 52.5183 26.9722 51.9224V39.7669C26.9722 37.6036 28.734 35.8418 30.8973 35.8418C31.4932 35.8418 31.9768 36.3254 31.9768 36.9213C31.9768 37.5172 31.4932 38.0008 30.8973 38.0008C29.9236 38.0008 29.1312 38.7932 29.1312 39.7669V51.9224C29.1312 52.5183 28.6476 53.0019 28.0517 53.0019Z" fill="#FFCD00"/>
<path d="M53.4205 53.0019C52.8246 53.0019 52.341 52.5183 52.341 51.9224V39.7669C52.341 38.7932 51.5486 38.0008 50.5749 38.0008H50.21C49.6141 38.0008 49.1305 37.5172 49.1305 36.9213C49.1305 36.3254 49.6141 35.8418 50.21 35.8418H50.5749C52.7383 35.8418 54.5 37.6036 54.5 39.7669V51.9224C54.5 52.5183 54.0164 53.0019 53.4205 53.0019Z" fill="#FFCD00"/>
<path d="M40.736 46.6716C41.2905 46.6716 41.74 46.2221 41.74 45.6676C41.74 45.1131 41.2905 44.6636 40.736 44.6636C40.1815 44.6636 39.7321 45.1131 39.7321 45.6676C39.7321 46.2221 40.1815 46.6716 40.736 46.6716Z" fill="#FFCD00"/>
<path d="M40.736 49.4373C41.2905 49.4373 41.74 48.9878 41.74 48.4333C41.74 47.8789 41.2905 47.4294 40.736 47.4294C40.1815 47.4294 39.7321 47.8789 39.7321 48.4333C39.7321 48.9878 40.1815 49.4373 40.736 49.4373Z" fill="#FFCD00"/>
<path d="M25.0376 53.1034C24.4417 53.1034 23.9581 52.6198 23.9581 52.0239L23.9883 38.003H18.9987C18.4028 38.003 17.9192 37.5194 17.9192 36.9235C17.9192 36.3276 18.4028 35.8439 18.9987 35.8439H25.0678C25.6637 35.8439 26.1473 36.3276 26.1473 36.9235L26.1171 52.0239C26.1171 52.6198 25.6335 53.1034 25.0376 53.1034Z" fill="#FFCD00"/>
<path d="M1.57952 53.1034C0.983627 53.1034 0.5 52.6198 0.5 52.0239L0.530227 36.9235C0.530227 36.3276 1.01385 35.8439 1.60975 35.8439H7.67884C8.27474 35.8439 8.75837 36.3276 8.75837 36.9235C8.75837 37.5194 8.27474 38.003 7.67884 38.003H2.68928L2.65905 52.0239C2.65905 52.6198 2.17542 53.1034 1.57952 53.1034Z" fill="#FFCD00"/>
<path d="M20.5381 48.5089H18.0077C16.8569 48.5089 15.9199 47.5719 15.9199 46.4211V42.0469C15.9199 41.451 16.4035 40.9673 16.9994 40.9673H21.5486C22.1445 40.9673 22.6281 41.451 22.6281 42.0469V46.4189C22.6281 47.5719 21.6911 48.5089 20.5381 48.5089ZM18.079 46.3499H20.469V43.1264H18.079V46.3499Z" fill="#FFCD00"/>
</svg>
