<svg width="55" height="53" viewBox="0 0 55 53" fill="none" xmlns="http://www.w3.org/2000/svg">
<path d="M27.7381 18.4781C27.6054 18.4781 27.4728 18.4543 27.3466 18.4045L7.74012 10.8705C7.32689 10.7124 7.05286 10.3206 7.04416 9.88108C7.03546 9.44159 7.29644 9.04108 7.70097 8.86572L27.0682 0.573947C27.3401 0.45704 27.6468 0.45704 27.9186 0.569617L47.7644 8.86139C48.1732 9.03242 48.4364 9.43293 48.4299 9.87458C48.4234 10.3162 48.1493 10.7103 47.7339 10.8683L28.1274 18.4023C28.0034 18.4543 27.8708 18.4781 27.7381 18.4781ZM11.0111 9.80531L27.7403 16.2352L44.4368 9.8183L27.5054 2.74323L11.0111 9.80531Z" fill="#FFCD00"/>
<path d="M28.0839 21.89C21.3961 21.89 15.9089 19.7641 15.5587 19.6255C15.1455 19.461 14.8737 19.0626 14.8737 18.6188V15.7611C14.8737 15.1635 15.3608 14.6786 15.9611 14.6786C16.5614 14.6786 17.0485 15.1635 17.0485 15.7611V17.8589C19.7062 18.7509 29.5823 21.587 37.8056 17.7268V15.7611C37.8056 15.1635 38.2927 14.6786 38.893 14.6786C39.4933 14.6786 39.9804 15.1635 39.9804 15.7611V18.4001C39.9804 18.805 39.7542 19.1752 39.391 19.3614C35.6872 21.2665 31.7094 21.89 28.0839 21.89Z" fill="#FFCD00"/>
<path d="M27.4271 43.9899C21.4657 43.9899 18.36 40.9286 16.805 38.361C15.1477 35.6245 14.8889 32.9053 14.8802 32.7906C14.878 32.7581 14.8759 32.7278 14.8759 32.6953V22.4248C14.8759 21.8273 15.363 21.3423 15.9633 21.3423C16.5636 21.3423 17.0507 21.8273 17.0507 22.4248V32.6412C17.1312 33.3968 18.2469 41.8249 27.4292 41.8249C36.5942 41.8249 37.7229 33.6306 37.8077 32.8664V22.2061C37.8077 21.6086 38.2949 21.1237 38.8952 21.1237C39.4955 21.1237 39.9826 21.6086 39.9826 22.2061V32.9226C39.9826 32.9551 39.9805 32.9876 39.9783 33.0201C39.9674 33.1326 39.7086 35.802 38.047 38.4844C36.4876 40.9958 33.3819 43.9899 27.4271 43.9899Z" fill="#FFCD00"/>
<path d="M27.364 50.6645C27.3597 50.6645 27.3553 50.6645 27.351 50.6645C27.0095 50.6601 26.6898 50.4956 26.4875 50.2206L22.8076 45.2088C22.4531 44.726 22.5597 44.0484 23.0447 43.6955C23.5297 43.3426 24.2104 43.4487 24.5649 43.9314L27.3901 47.7786L30.4589 43.8167C30.8264 43.3426 31.5093 43.256 31.9834 43.6197C32.4597 43.9856 32.5467 44.6654 32.1814 45.1373L28.2296 50.2423C28.0187 50.5086 27.7011 50.6645 27.364 50.6645Z" fill="#FFCD00"/>
<path d="M1.58741 52.4852C1.3373 52.4852 1.08502 52.4007 0.88058 52.2254C0.423856 51.8378 0.371659 51.1537 0.760962 50.6991C5.70228 44.9533 11.7506 43.3079 15.9525 42.9377C20.4893 42.5394 23.8451 43.4876 23.9843 43.5288C24.5606 43.6955 24.8934 44.2951 24.7259 44.8689C24.5585 45.4426 23.9582 45.7738 23.3797 45.6071C23.3492 45.5984 20.2087 44.7216 16.0612 45.1005C10.5697 45.6028 5.97632 47.9604 2.40952 52.1063C2.19855 52.3574 1.89407 52.4852 1.58741 52.4852Z" fill="#FFCD00"/>
<path d="M53.4125 52.4852C53.1058 52.4852 52.8013 52.3575 52.586 52.1063C49.0214 47.9604 44.4281 45.6028 38.9343 45.1005C34.7868 44.7217 31.6485 45.5985 31.6159 45.6071C31.0395 45.7717 30.4371 45.4404 30.2696 44.8667C30.1043 44.293 30.4349 43.6933 31.0112 43.5266C31.1526 43.4855 34.5063 42.5372 39.0431 42.9356C43.2471 43.3058 49.2933 44.9511 54.2346 50.6969C54.6261 51.1516 54.5717 51.8335 54.115 52.2232C53.9149 52.4008 53.6626 52.4852 53.4125 52.4852Z" fill="#FFCD00"/>
<path d="M10.1846 31.2643C9.58434 31.2643 9.09717 30.7793 9.09717 30.1818V10.6496C9.09717 10.0521 9.58434 9.56714 10.1846 9.56714C10.7849 9.56714 11.272 10.0521 11.272 10.6496V30.184C11.272 30.7815 10.7849 31.2643 10.1846 31.2643Z" fill="#FFCD00"/>
<path d="M12.1159 41.0174H8.46433C8.12939 41.0174 7.81404 40.8637 7.60742 40.6017C7.40081 40.3398 7.32687 39.9977 7.40734 39.6751L9.23206 32.2992C9.35168 31.8164 9.78665 31.4765 10.2869 31.4765C10.7871 31.4765 11.2221 31.8164 11.3439 32.2992L13.1686 39.6751C13.2491 39.9977 13.1751 40.3398 12.9685 40.6017C12.7641 40.8637 12.4487 41.0174 12.1159 41.0174ZM9.85407 38.8525H10.7284L10.2912 37.0859L9.85407 38.8525Z" fill="#FFCD00"/>
</svg>
